# xmcd
#
# Track frame offsets:
#	150
#	14360
#	28242
#	38055
#	47881
#	57499
#	70094
#	81341
#	93428
#	103859
#	119431
#	132344
#	145948
#	165644
#	173412
#	182947
#	191515
#	202833
#	214415
#	225195
#	235713
#
# Disc length: 3232 seconds
#
# Revision: 1
# Processed by: cddbd v1.5.1PL0 Copyright (c) Steve Scherf et al.
# Submitted via: EasyCDDAExtractor 7.0.5.4
#
DISCID=250c9e15
DTITLE=Leroy Larson and the Minnesota Scandanavian Ensemble - Early Years
DYEAR=1900
DGENRE=country
TTITLE0=KRISTIANIA VALSEN
TTITLE1=WESTBY WALTZ
TTITLE2=FINSETH SCHOTTISCHE
TTITLE3=UT PA LANDSVAJEN
TTITLE4=ED QUALL'S POLKA
TTITLE5=HELGE'S WALTZ
TTITLE6=DROMMEN OM ELIN
TTITLE7=STORSVEEN SCHOTTISCHE
TTITLE8=GARY'S POLKA
TTITLE9=NIKOLINA'S BUTTERFLY
TTITLE10=GLADE AALESUND
TTITLE11=LARSON WALTZ
TTITLE12=SCHOTTISCHE MEDLEY
TTITLE13=SWAMPERS REVENGE ON THE WINDFALL
TTITLE14=MIDSOMMAR VALS
TTITLE15=WALTZ IN A
TTITLE16=HOLIDAY SCHOTTISCHE
TTITLE17=ELLEFSON SCHOTTISCHE
TTITLE18=NORSK BONDEVALS
TTITLE19=RALLAR POLKA
TTITLE20=WALTZ # 129
EXTD=
EXTT0=
EXTT1=
EXTT2=
EXTT3=
EXTT4=
EXTT5=
EXTT6=
EXTT7=
EXTT8=
EXTT9=
EXTT10=
EXTT11=
EXTT12=
EXTT13=
EXTT14=
EXTT15=
EXTT16=
EXTT17=
EXTT18=
EXTT19=
EXTT20=
PLAYORDER=
